
<svg viewBox="0 0 50 40" fill="none" xmlns="http://www.w3.org/2000/svg">
<g clip-path="url(#clip0)">
<path fill-rule="evenodd" clip-rule="evenodd" d="M19.9778 40C36.4405 40 49.9666 20.0222 49.9666 20.0222C49.9666 20.0222 36.4405 0 19.9778 0C9.03226 0.177976 0.177976 9.03226 0 20.0222C0.177976 30.9677 9.03226 39.822 19.9778 40Z" fill="#2286E6"/>
<path fill-rule="evenodd" clip-rule="evenodd" d="M17.2193 26.7853L18.999 28.5651L20.7788 26.7853L30.7454 16.7742C31.6798 15.7508 31.5908 14.1935 30.5674 13.2592C29.6331 12.3693 28.1648 12.3693 27.1859 13.2592L19.0435 21.4905L15.751 18.2425C14.7276 17.3081 13.1258 17.3971 12.236 18.4205C11.3906 19.3103 11.3906 20.6897 12.147 21.6685C12.1915 21.713 12.236 21.7575 12.2805 21.802L17.2193 26.7853Z" fill="white"/>
</g>
<defs>
<clipPath id="clip0">
<rect width="49.9666" height="40" fill="white"/>
</clipPath>
</defs>
</svg>
