<svg xmlns="http://www.w3.org/2000/svg" version="1.1" xmlns:xlink="http://www.w3.org/1999/xlink" xmlns:svgjs="http://svgjs.com/svgjs" width="512" height="512" x="0" y="0" viewBox="0 0 36 36" style="enable-background:new 0 0 512 512" xml:space="preserve" class=""><g><g xmlns="http://www.w3.org/2000/svg"><path d="m27.623 4.167c-6.917 0-11.667-3.583-15-3.583s-10.333 1.916-10.333 17.249 9.417 17.583 13.083 17.583c17.167.001 24.5-31.249 12.25-31.249z" fill="#efefef" data-original="#efefef" class=""></path></g><g xmlns="http://www.w3.org/2000/svg"><path d="m9 7.5c-.827 0-1.5-.673-1.5-1.5s.673-1.5 1.5-1.5 1.5.673 1.5 1.5-.673 1.5-1.5 1.5zm0-2c-.276 0-.5.225-.5.5s.224.5.5.5.5-.225.5-.5-.224-.5-.5-.5z" fill="#a4afc1" data-original="#a4afc1" class=""></path></g><g xmlns="http://www.w3.org/2000/svg"><path d="m27.25 24.25h-18.5v-11.5c0-.552.448-1 1-1h16.5c.552 0 1 .448 1 1z" fill="#f3f3f1" data-original="#f3f3f1" class=""></path></g><g xmlns="http://www.w3.org/2000/svg"><circle cx="17" cy="18" fill="#2f74df" r="1.25" data-original="#2fdf84" class=""></circle></g><g xmlns="http://www.w3.org/2000/svg"><path d="m20.25 24.25v-.5c0-1.105-.895-2-2-2h-2.5c-1.105 0-2 .895-2 2v.5z" fill="#2f74df" data-original="#2fdf84" class=""></path></g><g xmlns="http://www.w3.org/2000/svg"><path d="m29.25 6.75-3 2.5v-1.5c0-.552-.448-1-1-1h-5.5c-.552 0-1 .198-1 .75v4.75c0 .552.448 1 1 1h5.5c.552 0 1-.448 1-1v-1.25l3 2.25z" fill="#2f74df" data-original="#2fdf84" class=""></path></g><g xmlns="http://www.w3.org/2000/svg"><path d="m12 11.75h-2.25c-.552 0-1 .448-1 1v11.5h2.25v-11.5c0-.552.448-1 1-1z" fill="#d5dbe1" data-original="#d5dbe1" class=""></path></g><g xmlns="http://www.w3.org/2000/svg"><path d="m18 18c0-.19.049-.365.125-.526-.2-.425-.625-.724-1.125-.724-.69 0-1.25.56-1.25 1.25s.56 1.25 1.25 1.25c.5 0 .925-.299 1.125-.724-.076-.161-.125-.336-.125-.526z" fill="#115dbd" data-original="#00b871" class=""></path></g><g xmlns="http://www.w3.org/2000/svg"><path d="m18 21.75h-2.25c-1.105 0-2 .895-2 2v.5h2.25v-.5c0-1.105.895-2 2-2z" fill="#115dbd" data-original="#00b871" class=""></path></g><g xmlns="http://www.w3.org/2000/svg"><path d="m21 12.25v-4.75c0-.552.448-.75 1-.75h-2.25c-.552 0-1 .198-1 .75v4.75c0 .552.448 1 1 1h2.25c-.552 0-1-.448-1-1z" fill="#115dbd" data-original="#00b871" class=""></path></g><g xmlns="http://www.w3.org/2000/svg"><path d="m6 23.5h24v1.5h-24z" fill="#000000" data-original="#000000" class=""></path></g><g xmlns="http://www.w3.org/2000/svg"><path d="m26.5 16h1.5v8.5h-1.5z" fill="#000000" data-original="#000000" class=""></path></g><g xmlns="http://www.w3.org/2000/svg"><path d="m9.5 24.5h-1.5v-11.75c0-.965.785-1.75 1.75-1.75h6.25v1.5h-6.25c-.138 0-.25.112-.25.25z" fill="#000000" data-original="#000000" class=""></path></g><g xmlns="http://www.w3.org/2000/svg"><path d="m17 20c-1.103 0-2-.897-2-2s.897-2 2-2 2 .897 2 2-.897 2-2 2zm0-2.5c-.276 0-.5.225-.5.5s.224.5.5.5.5-.225.5-.5-.224-.5-.5-.5z" fill="#000000" data-original="#000000" class=""></path></g><g xmlns="http://www.w3.org/2000/svg"><path d="m21 24.25h-1.5v-.5c0-.689-.561-1.25-1.25-1.25h-2.5c-.689 0-1.25.561-1.25 1.25v.5h-1.5v-.5c0-1.517 1.233-2.75 2.75-2.75h2.5c1.517 0 2.75 1.233 2.75 2.75z" fill="#000000" data-original="#000000" class=""></path></g><g xmlns="http://www.w3.org/2000/svg"><path d="m29.25 14c-.159 0-.318-.051-.45-.15l-1.816-1.361c-.116.852-.85 1.511-1.734 1.511h-5.5c-.965 0-1.75-.785-1.75-1.75v-4.75c0-.692.458-1.5 1.75-1.5h5.5c.932 0 1.696.732 1.747 1.651l1.773-1.478c.223-.187.534-.229.798-.103.264.124.432.389.432.68v6.5c0 .284-.161.544-.415.671-.106.053-.221.079-.335.079zm-9.5-6.5c-.184 0-.276.033-.296.045l.046 4.705c0 .138.112.25.25.25h5.5c.138 0 .25-.112.25-.25v-1.25c0-.284.161-.544.415-.671.254-.126.559-.1.786.071l1.8 1.35v-3.398l-1.77 1.475c-.224.186-.535.226-.798.103-.265-.124-.433-.389-.433-.68v-1.5c0-.138-.112-.25-.25-.25z" fill="#000000" data-original="#000000" class=""></path></g><g xmlns="http://www.w3.org/2000/svg"><path d="m2 23.5h32v1.5h-32z" fill="#000000" data-original="#000000" class=""></path></g></g></svg>