<svg xmlns="http://www.w3.org/2000/svg" version="1.1" xmlns:xlink="http://www.w3.org/1999/xlink" xmlns:svgjs="http://svgjs.com/svgjs" width="512" height="512" x="0" y="0" viewBox="0 0 36 36" style="enable-background:new 0 0 512 512" xml:space="preserve" class=""><g><path xmlns="http://www.w3.org/2000/svg" d="m8.377 4.167c6.917 0 11.667-3.583 15-3.583s10.333 1.916 10.333 17.249-9.417 17.583-13.083 17.583c-17.167.001-24.5-31.249-12.25-31.249z" fill="#f3f3f1" data-original="#f3f3f1" class=""></path><path xmlns="http://www.w3.org/2000/svg" d="m6.75 13.65c-.827 0-1.5-.673-1.5-1.5s.673-1.5 1.5-1.5 1.5.673 1.5 1.5-.673 1.5-1.5 1.5zm0-2c-.275 0-.5.224-.5.5s.225.5.5.5.5-.224.5-.5-.225-.5-.5-.5z" fill="#a4afc1" data-original="#a4afc1" class=""></path><path xmlns="http://www.w3.org/2000/svg" d="m6.75 18.75v8.5h2.75l2-7.386s-1.458-1.114-4.75-1.114z" fill="#2f74df" data-original="#2fdf84" class=""></path><path xmlns="http://www.w3.org/2000/svg" d="m29.25 25.25s-7.25 4-10.25 4c-2.39 0-7.31-2.22-9.22-3.12l1.49-5.42 9.63 1.97c.93.19 1.6 1.01 1.6 1.96v.43c-.02.01-.03.01-.05.02h.05v-.02c1.44-.44 2.95-1.07 4.25-1.07 2 0 2.5 1.25 2.5 1.25z" fill="#efefef" data-original="#efefef" class=""></path><path xmlns="http://www.w3.org/2000/svg" d="m22.5 25.07v.02h-.05c.02-.01.03-.01.05-.02z" fill="#efefef" data-original="#efefef" class=""></path><path xmlns="http://www.w3.org/2000/svg" d="m22.5 25.07v.02h-.05c.02-.01.03-.01.05-.02z" fill="#d5dbe1" data-original="#d5dbe1" class=""></path><path xmlns="http://www.w3.org/2000/svg" d="m6.75 18.75v8.5h2.25v-8.3c-.626-.117-1.367-.2-2.25-.2z" fill="#115dbd" data-original="#00b871" class=""></path><g xmlns="http://www.w3.org/2000/svg" fill="#d5dbe1"><path d="m24.75 24.64v.43c1.015-.31 2.063-.71 3.049-.922-.295-.086-.633-.148-1.049-.148-.636 0-1.322.152-2.025.357.014.093.025.187.025.283z" fill="#d5dbe1" data-original="#d5dbe1" class=""></path><path d="m24.75 25.09v-.02c-.02.01-.03.01-.05.02z" fill="#d5dbe1" data-original="#d5dbe1" class=""></path><path d="m12.03 26.13 1.37-4.984-2.13-.436-1.49 5.42c1.91.9 6.83 3.12 9.22 3.12.314 0 .683-.052 1.077-.131-2.571-.483-6.411-2.218-8.047-2.989z" fill="#d5dbe1" data-original="#d5dbe1" class=""></path><path d="m24.75 25.07v.02h-.05c.02-.01.03-.01.05-.02z" fill="#d5dbe1" data-original="#d5dbe1" class=""></path></g><path xmlns="http://www.w3.org/2000/svg" d="m9.5 28h-2.75c-.414 0-.75-.336-.75-.75v-8.5c0-.414.336-.75.75-.75 3.506 0 5.138 1.217 5.205 1.269.242.185.349.498.269.792l-2 7.386c-.088.326-.385.553-.724.553zm-2-1.5h1.426l1.698-6.271c-.523-.247-1.545-.615-3.124-.707z" fill="#000000" data-original="#000000" class=""></path><path xmlns="http://www.w3.org/2000/svg" d="m19 30c-2.405 0-7.009-2-9.539-3.191-.375-.177-.536-.624-.359-.999.177-.374.624-.535.998-.359 4.112 1.938 7.356 3.049 8.9 3.049 2.028 0 6.632-2.191 9.045-3.455-.278-.159-.692-.295-1.295-.295-.878 0-1.964.362-3.013.711-1.163.388-2.365.789-3.487.789-2.107 0-4.889-1.002-5.006-1.045-.39-.142-.591-.572-.449-.961.143-.39.573-.589.961-.449.026.01 2.652.955 4.494.955.878 0 1.964-.362 3.013-.711 1.163-.388 2.365-.789 3.487-.789 2.479 0 3.168 1.651 3.196 1.722.141.351-.003.752-.334.935-.302.167-7.455 4.093-10.612 4.093z" fill="#000000" data-original="#000000" class=""></path><path xmlns="http://www.w3.org/2000/svg" d="m22.5 25.84c-.414 0-.75-.336-.75-.75v-.45c0-.591-.421-1.107-1-1.225l-9.631-1.97c-.405-.083-.667-.479-.584-.885s.48-.665.885-.584l9.631 1.97c1.274.26 2.199 1.394 2.199 2.695v.45c0 .413-.336.749-.75.749z" fill="#000000" data-original="#000000" class=""></path><path xmlns="http://www.w3.org/2000/svg" d="m21.751 16.5c-.057 0-.113-.006-.17-.019-.403-.093-.655-.496-.562-.899l1.5-6.5c.094-.405.502-.652.899-.563.403.093.655.496.562.899l-1.5 6.5c-.08.348-.388.582-.729.582z" fill="#000000" data-original="#000000" class=""></path><path xmlns="http://www.w3.org/2000/svg" d="m25.75 15.5c-.205 0-.409-.083-.558-.248-.277-.308-.252-.782.056-1.06l1.881-1.692-1.881-1.692c-.308-.277-.333-.751-.056-1.06.278-.308.752-.332 1.06-.056l2.5 2.25c.158.143.248.346.248.558s-.09.415-.248.558l-2.5 2.25c-.144.129-.323.192-.502.192z" fill="#000000" data-original="#000000" class=""></path><path xmlns="http://www.w3.org/2000/svg" d="m19.25 15.5c-.179 0-.358-.063-.502-.192l-2.5-2.25c-.158-.143-.248-.346-.248-.558s.09-.415.248-.558l2.5-2.25c.309-.277.782-.253 1.06.056.277.308.252.782-.056 1.06l-1.881 1.692 1.881 1.692c.308.277.333.751.056 1.06-.149.165-.353.248-.558.248z" fill="#000000" data-original="#000000" class=""></path></g></svg>