<svg xmlns="http://www.w3.org/2000/svg" viewBox="0 0 214.11 128.46"><defs><style>.cls-1{fill:#ff642d;}</style></defs><title>Asset 2</title><g id="Layer_2" data-name="Layer 2"><g id="Layer_1-2" data-name="Layer 1"><path class="cls-1" d="M184.64,63.39c0,4-2,4.61-7.07,4.61-5.37,0-6.29-.93-6.9-4.92-1.08-10.28-8-19-19.64-19.95-3.69-.3-4.61-1.69-4.61-6.29,0-4.29.62-6.29,4-6.29,20.26,0,34.23,16.26,34.23,32.84m29.47,0C214.11,32.55,193.24,0,145,0H49.23C47.3,0,46.1,1,46.1,2.78a3.22,3.22,0,0,0,1.38,2.33C51,7.88,56.1,10.9,63,14.34c6.65,3.32,11.79,5.48,17,7.6,2.15.88,3,1.83,3,3.11,0,1.67-1.18,2.72-3.6,2.72h-76C1.08,27.77,0,29.22,0,30.68A4.51,4.51,0,0,0,1.5,34c6.17,6.44,16,14.2,30.32,23.18A444.61,444.61,0,0,0,72.25,79.45c2.07,1,2.79,2.15,2.74,3.34-.06,1.38-1.14,2.54-3.54,2.54H36.6c-2,0-3.09,1-3.09,2.65a4.6,4.6,0,0,0,1.66,2.88c7.93,7.19,20.61,15,37.5,22.24,22.53,9.6,45.46,15.36,71.22,15.36,48.81,0,70.22-36.52,70.22-65.07m-63.7,43.74a44,44,0,0,1-43.89-43.74c0-23.94,20-43.12,43.89-43.12,24.56,0,43.74,19.18,43.74,43.12a43.43,43.43,0,0,1-43.74,43.74"/></g></g></svg>