
<svg xmlns="http://www.w3.org/2000/svg" xmlns:xlink="http://www.w3.org/1999/xlink" viewBox="0 0 864.69 312.44"><defs><style>.cls-1{fill:none;}.cls-3{clip-path:url(#clip-path);}.cls-4{fill:#ee2334;}</style><clipPath id="clip-path" transform="translate(0)"><rect class="cls-1" width="864.96" height="313"/></clipPath></defs><title>Asset 1</title><g id="Layer_2" data-name="Layer 2"><g id="Layer_1-2" data-name="Layer 1"><path class="cls-2" d="M426.65,110c0-10.39-7.08-15.35-20.78-15.35-13.93,0-21,5-21,15.35v3.3c0,7.56,5.44,10.16,8.74,11.57l37.31,13.23c14.64,5.19,25.26,14.88,25.26,30.7v16.53c0,17.94-12.51,34.95-51,34.95-38,0-51-17-51-34.95V171.91c0-3.78,1.41-5.67,5.19-5.67H377.3c3.78,0,5.19,1.65,5.19,5.67v9.68c0,10.39,8,15.34,22.67,15.34,14.41,0,22.67-5,22.67-15.34v-6.85c0-8.73-8.5-12.28-18.18-15.82l-33.06-12.51c-10.16-3.79-19.36-14.64-19.36-27.64V106.26c0-18,11.09-34.95,48.64-34.95,37.31,0,49.36,17,49.36,35V115c0,3.54-1.42,5.43-5.44,5.43H431.85c-3.55,0-5-1.66-5-5.43v-5h-.24" transform="translate(0)"/><path class="cls-2" d="M758.43,73c3.54,0,5.43,1.19,5.43,5.2V91.62c0,3.78-1.66,5.43-5.43,5.43H703.88v34.72h51c3.78,0,5.44,1.17,5.44,5.19v13.69c0,3.78-1.42,5.44-5.44,5.44h-51v57.14c0,3.78-1.18,5.67-5.2,5.67H680c-3.78,0-5.19-1.65-5.19-5.67V78.63C674.84,74.85,676,73,680,73h78.4" transform="translate(0)"/><path class="cls-2" d="M817.7,195.29c-.24,0-3.54.47-4.72.47-9,0-11.58-3.54-11.58-11.33V117.36c0-3.78-1.65-5.43-5.43-5.43H778.5c-3.55,0-5.2,1.41-5.2,5.43v74.15c0,16.76,11.34,28.57,30.7,28.57a52.3,52.3,0,0,0,12.75-1.42c.23,0,.47-.23,1-.23s1.41-23.38,0-23.14" transform="translate(0)"/><path class="cls-2" d="M859.26,111.93H841.55c-3.78,0-5.2,1.42-5.2,5.43v69.19l1.18,26.68c.47,3.78,1.42,5.43,5.44,5.43h16.52c3.55,0,5.2-1.41,5.2-5.43V117.36c-.23-4-1.88-5.43-5.43-5.43" transform="translate(0)"/><path class="cls-2" d="M659,111.93h-16.3c-3.54,0-4.72,1.89-5.67,5.43L603.52,221.27l-10.39,34.94c-1.18,3.54,1.18,5.43,5.19,5.43h12.75c3.78,0,5.2-2.6,5.91-5.43l47.23-138.85c1.18-3.54-1.42-5.43-5.19-5.43" transform="translate(0)"/><path class="cls-2" d="M515.91,195.05c-3.54-.94-5.2,1.18-5.2,5v12.51c0,3.78,2.37,5,5.2,5.67V195.05" transform="translate(0)"/><path class="cls-2" d="M817.23,195.52c3.54-1,5.19,1.18,5.19,5v12.28c0,3.77-2.36,5-5.19,5.67V195.52" transform="translate(0)"/><path class="cls-2" d="M607.53,152.78c-.71-2.13-11.57-35.66-11.57-35.66-1.18-3.3-2.13-5.43-5.9-5.43H572.35c-3.54,0-6.14,1.89-5,5.43l26.68,77.22s2.13,2.6,2.84,0c2.83-9.68,9.68-31.88,10.62-34.71,1-3.78.72-4.72,0-6.85" transform="translate(0)"/><g class="cls-3"><path class="cls-2" d="M530.79,110.27a52.57,52.57,0,0,0-34.24,12.28l-.48-5.19c-.23-3.78-1.18-5.43-5.19-5.43H474.35c-3.78,0-5.43,1.42-5.43,5.43V256.21c0,3.78,1.42,5.43,5.43,5.43h17.71c3.54,0,5-1.41,5-5.43V144.52c4.49-3.31,13.93-9.92,24.8-9.92,9.91,0,11.56,5.67,11.56,11.09v38.73c0,5.67-1.65,11.34-11.56,11.34a30,30,0,0,1-6.61-.71c-1.43-.24-1.43,22.67,0,22.9a58.24,58.24,0,0,0,15.34,2.13c21.25,0,30.93-12.28,30.93-31.17V141.44c.48-19.12-9.44-31.17-30.69-31.17" transform="translate(0)"/><path class="cls-2" d="M116.84,194.34l82.88-24.8-46.28,27.87Zm75.33-179.7a158.59,158.59,0,0,0-34.49-5.43l1.19,13.46a142.79,142.79,0,0,1,29.52,4.72c72.73,20.07,115.71,94.93,97.05,167.66A137.57,137.57,0,0,1,237,267.31l-26-30.93a2.63,2.63,0,0,1-.46-1.9l10.15-32.58L165,212.29a2.28,2.28,0,0,1-1.66-.47,2.09,2.09,0,0,1-.7-1.43l.24-9.2a1.43,1.43,0,0,1,.7-1.42L209.4,166c-2.12-7.79-13.46-50.53-26.68-67.53a1.87,1.87,0,0,1-.24-1.89,2.23,2.23,0,0,1,1.66-1.18l68-3.3-94-45.58a2,2,0,0,1-.95-1.66L153,0,44.11,30.69,51.66,62.1A1.58,1.58,0,0,1,51,64L15.53,90l-.94,4.72,47.46,4.49a2,2,0,0,1,1.65,1.41l25,103.19v.72l.71,2.59-2.13-.94h-.95l-58.09-22L33,227.63a138.1,138.1,0,0,1-15.83-97.75c.48-2.13.95-4,1.42-6.14,1.65-6.39,5.67-16.3,9.21-24.09L13.64,98.23a137.1,137.1,0,0,0-7.09,19.36l-.46.48c-1,3.07-1.66,6.14-2.36,9.2C-14,205.68,33,285.26,111.41,307c80.52,22.2,164.35-25.27,186.55-105.79S272.69,36.84,192.17,14.64" transform="translate(0)"/></g><path class="cls-4" d="M190,291.39,158.4,229.05l-36.13-3.77,52.89,69.42A111.88,111.88,0,0,0,190,291.39" transform="translate(0)"/></g></g></svg>